<?xml version="1.0" encoding="UTF-8"?>
<svg xmlns="http://www.w3.org/2000/svg" width="16" height="16" fill="none" viewBox="0 0 16 16">
	<g clip-path="url(#clip0_417_2797)">
		<path fill="none" d="M8.071 15.21a7.209 7.209 0 1 0 0-14.419 7.209 7.209 0 0 0 0 14.418"/>
		<path fill="#C7C7C7" d="M7.985 0q3.357 0 5.715 2.343a7.7 7.7 0 0 1 1.714 2.579Q16 6.37 16 8a8.2 8.2 0 0 1-.579 3.078 7.3 7.3 0 0 1-1.707 2.536 8.2 8.2 0 0 1-2.657 1.771Q9.572 16 7.986 16a7.8 7.8 0 0 1-3.036-.607 8 8 0 0 1-2.6-1.757A7.85 7.85 0 0 1 0 8q0-1.586.607-3.05a8 8 0 0 1 1.764-2.621Q4.657-.002 7.985 0m.03 1.443q-2.745 0-4.615 1.914a6.9 6.9 0 0 0-1.45 2.15A6.3 6.3 0 0 0 1.442 8q0 1.286.508 2.479a6.6 6.6 0 0 0 1.45 2.129 6.6 6.6 0 0 0 2.129 1.428q1.185.493 2.485.493 1.285 0 2.494-.5a6.9 6.9 0 0 0 2.178-1.443q1.87-1.828 1.87-4.585a6.6 6.6 0 0 0-.485-2.515 6.4 6.4 0 0 0-1.413-2.114q-1.93-1.929-4.644-1.929m-.101 5.229-1.072.557q-.17-.357-.421-.5a.95.95 0 0 0-.465-.143q-1.071 0-1.071 1.415 0 .642.271 1.028.272.386.8.386.7 0 .986-.686l.986.5a2.35 2.35 0 0 1-2.1 1.257q-1.07 0-1.729-.657-.657-.657-.657-1.828 0-1.143.664-1.814.664-.672 1.68-.672 1.486 0 2.128 1.157m4.614 0-1.057.557q-.172-.357-.421-.5a1 1 0 0 0-.479-.143q-1.072 0-1.072 1.415 0 .642.272 1.028.27.386.8.386.7 0 .985-.686l1 .5q-.328.585-.885.922a2.3 2.3 0 0 1-1.214.335q-1.086 0-1.735-.657-.651-.657-.651-1.828 0-1.143.665-1.814.664-.672 1.678-.672 1.486 0 2.114 1.157"/>
	</g>
	<defs>
		<clipPath id="clip0_417_2797">
			<path fill="#fff" d="M0 0h16v16H0z"/>
		</clipPath>
	</defs>
</svg>
