<?xml version="1.0" encoding="UTF-8"?>
<svg xmlns="http://www.w3.org/2000/svg" width="16" height="16" fill="none" viewBox="0 0 16 16">
	<g clip-path="url(#clip0_417_2806)">
		<path fill="none" d="M7.861 15.309a7.276 7.276 0 1 0 0-14.553 7.276 7.276 0 0 0 0 14.553"/>
		<path fill="#000" d="M7.986 0q3.356 0 5.685 2.329Q16 4.643 16 8t-2.286 5.629Q11.298 15.999 7.986 16q-3.243 0-5.629-2.357Q0 11.286 0 8q0-3.27 2.357-5.67Q4.686-.001 7.986 0m.028 1.443q-2.729 0-4.614 1.929Q1.443 5.358 1.443 8q0 2.671 1.942 4.6 1.943 1.943 4.629 1.943 2.67 0 4.657-1.957 1.886-1.83 1.886-4.586 0-2.742-1.914-4.628-1.9-1.929-4.629-1.929M4.443 6.871q.228-1.47 1.185-2.278.957-.807 2.329-.807 1.886 0 3 1.214 1.113 1.215 1.114 3.114 0 1.843-1.157 3.064t-3 1.221q-1.357.001-2.343-.814-.985-.814-1.186-2.314H6.4q.07 1.457 1.757 1.457.844 0 1.357-.728.515-.73.515-1.943 0-1.272-.471-1.936-.472-.664-1.358-.664-1.6 0-1.8 1.414h.586L5.401 8.457 3.815 6.87z"/>
	</g>
	<defs>
		<clipPath id="clip0_417_2806">
			<path fill="#fff" d="M0 0h16v16H0z"/>
		</clipPath>
	</defs>
</svg>
