<?xml version="1.0" encoding="UTF-8"?>
<svg xmlns="http://www.w3.org/2000/svg" width="16" height="16" fill="none" viewBox="0 0 16 16">
	<g clip-path="url(#clip0_417_2801)">
		<path fill="none" d="M8.034 15.145a7.069 7.069 0 1 0 0-14.138 7.069 7.069 0 0 0 0 14.138"/>
		<path fill="#000" d="M7.986 0q3.37 0 5.685 2.314Q16 4.644 16 8q0 3.372-2.286 5.614Q11.284 16 7.986 16q-3.243 0-5.629-2.357Q0 11.285 0 8t2.357-5.685Q4.671 0 7.986 0m.028 1.443q-2.729 0-4.614 1.914Q1.443 5.358 1.443 8q0 2.658 1.942 4.6 1.943 1.943 4.629 1.943 2.67 0 4.657-1.957Q14.557 10.77 14.557 8q0-2.73-1.914-4.643-1.915-1.914-4.629-1.914m2.143 4.571v3.272h-.914v3.885H6.757V9.286h-.914V6.014q0-.214.15-.364t.364-.15h3.286q.2 0 .357.15t.157.364M6.886 3.957Q6.885 2.83 8 2.83t1.114 1.128q0 1.115-1.114 1.115T6.886 3.957"/>
	</g>
	<defs>
		<clipPath id="clip0_417_2801">
			<path fill="#fff" d="M0 0h16v16H0z"/>
		</clipPath>
	</defs>
</svg>
