<?xml version="1.0" encoding="UTF-8"?>
<svg xmlns="http://www.w3.org/2000/svg" width="22" height="16" fill="none">
	<title>
		Wikipedia W icon
	</title>
	<path fill="#FFFAD9" fill-rule="evenodd" d="M12.052.232c.754 0 1.143.04 1.656.04s.985 0 1.49-.04c.12.217.12.479 0 .696-1.06.168-1.507.976-2.012 1.968l-1.53 2.952 2.614 5.6h.075l3.906-8.696c.489-1.144.447-1.712-.877-1.824a.71.71 0 0 1 0-.696c.96 0 1.556.04 2.028.04.471 0 .985 0 1.796-.04a.71.71 0 0 1 0 .696c-1.35.168-1.581.976-2.012 1.968l-4.841 10.808c-.14.32-.265.488-.488.488-.224 0-.364-.168-.472-.488l-2.748-6.152-3.02 6.152c-.125.32-.266.488-.489.488s-.348-.168-.472-.488L2.212 2.864C1.582 1.36 1.542 1.04.375.936A.71.71 0 0 1 .358.232c.96 0 1.308.04 2.127.04.82 0 1.308-.016 2.268-.04a.71.71 0 0 1 0 .696c-1.291.144-1.341.48-.828 1.696l3.741 8.8h.058l2.284-4.8-1.688-3.76C7.64 1.36 7.476 1.064 6.598.936a.71.71 0 0 1 0-.696C7.252.24 7.6.28 8.42.28c.82 0 1.126 0 1.862-.04a.71.71 0 0 1 0 .696c-.827.128-.778.488-.215 1.696l.968 2.168.091.096 1.085-2.104c.629-1.224.711-1.696-.166-1.824a.72.72 0 0 1 .008-.736" clip-rule="evenodd"/>
</svg>